<svg version="1.1" viewBox="0.0 0.0 960.0 720.0" fill="none" stroke="none" stroke-linecap="square" stroke-miterlimit="10" xmlns:xlink="http://www.w3.org/1999/xlink" xmlns="http://www.w3.org/2000/svg"><clipPath id="p.0"><path d="m0 0l960.0 0l0 720.0l-960.0 0l0 -720.0z" clip-rule="nonzero"/></clipPath><g clip-path="url(#p.0)"><path fill="#000000" fill-opacity="0.0" d="m0 0l960.0 0l0 720.0l-960.0 0z" fill-rule="evenodd"/><path fill="#ccf2fd" d="m-0.88451445 -0.88451445l960.0 0l0 720.0l-960.0 0z" fill-rule="evenodd"/><path fill="#edfffc" d="m837.7848 30.110237l-213.43048 278.9685l-178.89236 116.01312l-471.14435 57.5643l6.1994762 246.1995l982.1391 -7.9711304l11.514404 -612.8399z" fill-rule="evenodd"/><path fill="#b7b7b7" d="m814.5362 100.53904l25.072205 -45.020596l118.80347 70.534195l-29.85669 183.57867z" fill-rule="evenodd"/><path fill="#edfffc" d="m-3.7217848 150.99475l48.708664 -49.593178l39.85302 16.826775l21.254593 34.538055l64.64829 63.76378l113.35957 51.367462l61.992126 102.729645l101.84515 49.59317l113.35693 22.141754l-259.4829 128.41208l-317.04724 46.05249z" fill-rule="evenodd"/><path fill="#999999" d="m46.052494 106.272964l29.223095 19.48294l21.254593 58.451447l54.908142 61.107605l62.879257 161.17848l90.3307 162.95273l-322.35956 48.70868l14.167979 -446.34644l29.225721 -44.280838z" fill-rule="evenodd"/><path fill="#bedcbd" d="m-7.1154857 553.15594l360.44357 -126.15225l149.66928 -122.24783l178.00525 -65.0264l148.78217 -162.56412l128.41467 31.212372l1.7716675 611.24286l-971.51447 -1.2988892z" fill-rule="evenodd"/><path fill="#88ba83" d="m-10.656168 635.0922l418.89236 -219.78549l176.2362 -167.76744l58.448853 40.3163l-74.39105 188.57312l-158.52234 127.45117l-123.09973 119.64996l-298.45145 -1.3027344z" fill-rule="evenodd"/><path fill="#6aa84f" d="m191.74385 341.71692l35.012146 -85.18848l0.16316223 91.21619z" fill-rule="evenodd"/><path fill="#93c47d" d="m261.84692 341.82846l-35.142654 -85.16742l-0.03263855 91.1951z" fill-rule="evenodd"/><path fill="#93c47d" d="m194.34744 310.91278l32.40724 -77.25424l0.15100098 82.72162z" fill-rule="evenodd"/><path fill="#b6d7a8" d="m259.23483 311.0085l-32.528046 -77.22972l-0.030197144 82.6971z" fill-rule="evenodd"/><path fill="#b6d7a8" d="m198.83685 290.1509l27.990097 -65.95987l0.13041687 70.62793z" fill-rule="evenodd"/><path fill="#d9ead3" d="m254.88002 290.23264l-28.094437 -65.938934l-0.02609253 70.606995z" fill-rule="evenodd"/><path fill="#6aa84f" d="m94.220955 380.3552l33.335663 -67.78708l0.1553421 72.583496z" fill-rule="evenodd"/><path fill="#93c47d" d="m160.96729 380.44394l-33.45993 -67.770325l-0.031066895 72.56674z" fill-rule="evenodd"/><path fill="#b6d7a8" d="m96.699486 354.5808l30.855484 -78.85629l0.14378357 84.43591z" fill-rule="evenodd"/><path fill="#d9ead3" d="m158.47989 354.68405l-30.970512 -78.83679l-0.028755188 84.41641z" fill-rule="evenodd"/><path fill="#38761d" d="m798.2214 688.8231l42.176514 -88.78247l0.1965332 95.06445z" fill-rule="evenodd"/><path fill="#6aa84f" d="m882.66925 688.9394l-42.33374 -88.7605l-0.03930664 95.04248z" fill-rule="evenodd"/><path fill="#6aa84f" d="m801.35724 655.06573l39.038574 -103.28003l0.18188477 110.58783z" fill-rule="evenodd"/><path fill="#93c47d" d="m879.5222 655.201l-39.184143 -103.25452l-0.036376953 110.56232z" fill-rule="evenodd"/><path fill="#6aa84f" d="m133.93874 373.59186l38.594208 -92.31525l0.17984009 98.8472z" fill-rule="evenodd"/><path fill="#93c47d" d="m211.21399 373.7127l-38.738083 -92.29239l-0.035964966 98.82434z" fill-rule="evenodd"/><path fill="#93c47d" d="m136.80824 338.4912l35.722794 -107.38974l0.16645813 114.98834z" fill-rule="evenodd"/><path fill="#b6d7a8" d="m208.33421 338.63184l-35.855972 -107.36319l-0.033294678 114.96176z" fill-rule="evenodd"/><path fill="#6aa84f" d="m708.6527 292.1785l33.90338 -92.74805l0.15802002 99.31061z" fill-rule="evenodd"/><path fill="#93c47d" d="m776.5358 292.29993l-34.029785 -92.7251l-0.03161621 99.28769z" fill-rule="evenodd"/><path fill="#93c47d" d="m711.17346 256.9133l31.380981 -107.8932l0.14624023 115.52742z" fill-rule="evenodd"/><path fill="#b6d7a8" d="m774.00604 257.05457l-31.497986 -107.866516l-0.02923584 115.50073z" fill-rule="evenodd"/><path fill="#6aa84f" d="m737.4053 297.3615l35.654053 -72.77928l0.1661377 77.92894z" fill-rule="evenodd"/><path fill="#5c9345" d="m808.7935 297.4568l-35.786926 -72.76126l-0.033203125 77.91092z" fill-rule="evenodd"/><path fill="#93c47d" d="m740.05615 269.68896l33.001404 -84.66368l0.15374756 90.65422z" fill-rule="evenodd"/><path fill="#b6d7a8" d="m806.1332 269.7998l-33.12439 -84.64273l-0.030761719 90.6333z" fill-rule="evenodd"/><path fill="#6aa84f" d="m804.4403 313.02368l42.727356 -89.205185l0.19909668 95.517105z" fill-rule="evenodd"/><path fill="#93c47d" d="m889.99115 313.14047l-42.886597 -89.183105l-0.039855957 95.495026z" fill-rule="evenodd"/><path fill="#93c47d" d="m807.6171 279.1056l39.548462 -103.77185l0.18426514 111.11444z" fill-rule="evenodd"/><path fill="#b6d7a8" d="m886.803 279.24146l-39.69586 -103.74617l-0.036865234 111.08876z" fill-rule="evenodd"/><path fill="#6aa84f" d="m660.05145 312.46793l37.492493 -93.34187l0.17468262 99.94646z" fill-rule="evenodd"/><path fill="#93c47d" d="m735.1208 312.59012l-37.632263 -93.31877l-0.03491211 99.923386z" fill-rule="evenodd"/><path fill="#b6d7a8" d="m662.83905 276.97693l34.703064 -108.583984l0.16168213 116.26709z" fill-rule="evenodd"/><path fill="#d9ead3" d="m732.3232 277.1191l-34.832397 -108.557144l-0.032348633 116.24022z" fill-rule="evenodd"/><path fill="#6aa84f" d="m612.81976 345.22562l33.90338 -92.74803l0.15802002 99.31062z" fill-rule="evenodd"/><path fill="#93c47d" d="m680.7029 345.34705l-34.029846 -92.72508l-0.031555176 99.287674z" fill-rule="evenodd"/><path fill="#93c47d" d="m615.34045 309.96045l31.381042 -107.89322l0.14624023 115.527405z" fill-rule="evenodd"/><path fill="#a5c499" d="m678.1731 310.10168l-31.497986 -107.8665l-0.02923584 115.50072z" fill-rule="evenodd"/><path fill="#38761d" d="m716.6331 362.57794l42.727417 -89.20517l0.19909668 95.51709z" fill-rule="evenodd"/><path fill="#6aa84f" d="m802.184 362.69473l-42.886658 -89.183105l-0.039794922 95.495026z" fill-rule="evenodd"/><path fill="#5c9345" d="m719.80994 328.65985l39.548462 -103.77185l0.18426514 111.11444z" fill-rule="evenodd"/><path fill="#88b674" d="m798.99585 328.79572l-39.69586 -103.74617l-0.036865234 111.08876z" fill-rule="evenodd"/><path fill="#6aa84f" d="m776.8272 373.57886l33.90338 -92.74805l0.15802002 99.31064z" fill-rule="evenodd"/><path fill="#93c47d" d="m844.7103 373.7003l-34.029785 -92.7251l-0.03161621 99.28769z" fill-rule="evenodd"/><path fill="#93c47d" d="m779.34796 338.3137l31.380981 -107.89322l0.14624023 115.527405z" fill-rule="evenodd"/><path fill="#b6d7a8" d="m842.18054 338.45493l-31.497986 -107.8665l-0.02923584 115.50072z" fill-rule="evenodd"/><path fill="#6aa84f" d="m685.0395 404.35464l31.378906 -72.7793l0.14624023 77.928925z" fill-rule="evenodd"/><path fill="#93c47d" d="m747.8679 404.44992l-31.49585 -72.76129l-0.029296875 77.91095z" fill-rule="evenodd"/><path fill="#93c47d" d="m687.37256 376.68207l29.044312 -84.663666l0.13531494 90.654236z" fill-rule="evenodd"/><path fill="#b6d7a8" d="m745.52655 376.79294l-29.152588 -84.64273l-0.02709961 90.63327z" fill-rule="evenodd"/><path fill="#6aa84f" d="m635.61554 413.60336l31.378906 -72.7793l0.14624023 77.928925z" fill-rule="evenodd"/><path fill="#93c47d" d="m698.444 413.69864l-31.49585 -72.76126l-0.029296875 77.91092z" fill-rule="evenodd"/><path fill="#88b674" d="m637.9486 385.9308l29.044312 -84.663666l0.13531494 90.654236z" fill-rule="evenodd"/><path fill="#9bc692" d="m696.1026 386.04166l-29.152588 -84.64273l-0.02709961 90.63327z" fill-rule="evenodd"/><path fill="#6aa84f" d="m538.07007 368.504l29.28363 -68.09909l0.13641357 72.9176z" fill-rule="evenodd"/><path fill="#93c47d" d="m596.7032 368.59317l-29.392761 -68.082275l-0.02734375 72.90076z" fill-rule="evenodd"/><path fill="#b6d7a8" d="m540.2473 342.61096l27.10492 -79.21924l0.12628174 84.824585z" fill-rule="evenodd"/><path fill="#d9ead3" d="m594.5181 342.7147l-27.205933 -79.199646l-0.025268555 84.80496z" fill-rule="evenodd"/><path fill="#6aa84f" d="m724.3604 446.83154l29.28363 -68.09909l0.13647461 72.91757z" fill-rule="evenodd"/><path fill="#93c47d" d="m782.9935 446.92072l-29.392761 -68.082275l-0.027282715 72.90076z" fill-rule="evenodd"/><path fill="#b6d7a8" d="m726.53766 420.9385l27.10492 -79.21924l0.12628174 84.824554z" fill-rule="evenodd"/><path fill="#d9ead3" d="m780.8085 421.04224l-27.205933 -79.199646l-0.025268555 84.80496z" fill-rule="evenodd"/><path fill="#6aa84f" d="m865.8822 358.84897l29.28363 -68.09912l0.13647461 72.9176z" fill-rule="evenodd"/><path fill="#93c47d" d="m924.5153 358.9381l-29.392761 -68.082245l-0.027282715 72.90076z" fill-rule="evenodd"/><path fill="#b6d7a8" d="m868.05945 332.95593l27.10492 -79.21925l0.12634277 84.82457z" fill-rule="evenodd"/><path fill="#d9ead3" d="m922.33026 333.05966l-27.205933 -79.19968l-0.025268555 84.80499z" fill-rule="evenodd"/><path fill="#38761d" d="m828.014 421.5529l37.05316 -89.2052l0.17260742 95.51709z" fill-rule="evenodd"/><path fill="#6aa84f" d="m902.2036 421.66968l-37.191284 -89.183136l-0.034484863 95.495026z" fill-rule="evenodd"/><path fill="#6aa84f" d="m830.7689 387.63477l34.296387 -103.77182l0.15979004 111.11441z" fill-rule="evenodd"/><path fill="#93c47d" d="m899.43884 387.77063l-34.424255 -103.746155l-0.031921387 111.088745z" fill-rule="evenodd"/><path fill="#6aa84f" d="m573.96893 380.57764l29.28357 -68.09909l0.13647461 72.9176z" fill-rule="evenodd"/><path fill="#93c47d" d="m632.602 380.6668l-29.392761 -68.082245l-0.027282715 72.90073z" fill-rule="evenodd"/><path fill="#aaca9d" d="m576.1462 354.68463l27.10492 -79.21927l0.12628174 84.824585z" fill-rule="evenodd"/><path fill="#d9ead3" d="m630.417 354.78833l-27.205994 -79.199646l-0.025268555 84.80499z" fill-rule="evenodd"/><path fill="#6aa84f" d="m779.08417 507.50778l42.726135 -125.17813l0.19909668 134.03534z" fill-rule="evenodd"/><path fill="#93c47d" d="m864.6326 507.67166l-42.885437 -125.147125l-0.039794922 134.0044z" fill-rule="evenodd"/><path fill="#93c47d" d="m782.26135 462.2434l39.547363 -113.51935l0.18426514 121.55325z" fill-rule="evenodd"/><path fill="#b6d7a8" d="m861.44507 462.38406l-39.694763 -113.48331l-0.036865234 121.51721z" fill-rule="evenodd"/><path fill="#b6d7a8" d="m787.7399 431.73535l34.156982 -96.923096l0.15917969 103.78247z" fill-rule="evenodd"/><path fill="#d9ead3" d="m856.13074 431.85547l-34.2843 -96.892365l-0.03186035 103.75171z" fill-rule="evenodd"/><path fill="#6aa84f" d="m447.4016 366.6639l-38.594208 -92.31525l-0.17984009 98.8472z" fill-rule="evenodd"/><path fill="#93c47d" d="m370.12637 366.78476l38.738068 -92.29239l0.035980225 98.82434z" fill-rule="evenodd"/><path fill="#93c47d" d="m444.5321 331.56326l-35.72278 -107.389725l-0.16647339 114.98833z" fill-rule="evenodd"/><path fill="#b6d7a8" d="m373.00613 331.7039l35.855988 -107.36319l0.03326416 114.96176z" fill-rule="evenodd"/><path fill="#6aa84f" d="m414.64764 371.8495l-40.588135 -72.44714l-0.18914795 77.57327z" fill-rule="evenodd"/><path fill="#5c9345" d="m333.38007 371.94434l40.73941 -72.42923l0.037841797 77.55536z" fill-rule="evenodd"/><path fill="#93c47d" d="m411.62988 344.30322l-37.56836 -84.27731l-0.17507935 90.24051z" fill-rule="evenodd"/><path fill="#b6d7a8" d="m336.4086 344.41354l37.708435 -84.25644l0.035003662 90.219666z" fill-rule="evenodd"/><path fill="#6aa84f" d="m338.3788 387.3951l-48.638153 -88.78247l-0.22665405 95.06445z" fill-rule="evenodd"/><path fill="#93c47d" d="m240.99306 387.51135l48.819473 -88.7605l0.04534912 95.04248z" fill-rule="evenodd"/><path fill="#93c47d" d="m334.76254 353.63773l-45.01947 -103.280075l-0.20977783 110.587875z" fill-rule="evenodd"/><path fill="#b6d7a8" d="m244.62228 353.77295l45.187317 -103.25453l0.04196167 110.56233z" fill-rule="evenodd"/><path fill="#6aa84f" d="m502.72275 386.8682l-42.680054 -92.90909l-0.19888306 99.48306z" fill-rule="evenodd"/><path fill="#93c47d" d="m417.26663 386.98984l42.83914 -92.88611l0.039764404 99.46008z" fill-rule="evenodd"/><path fill="#b6d7a8" d="m499.54947 351.54178l-39.50467 -108.08055l-0.18408203 115.72801z" fill-rule="evenodd"/><path fill="#d9ead3" d="m420.45126 351.6833l39.651917 -108.05382l0.036834717 115.70128z" fill-rule="evenodd"/><path fill="#6aa84f" d="m556.49384 419.46744l-38.594177 -92.31525l-0.1798706 98.8472z" fill-rule="evenodd"/><path fill="#93c47d" d="m479.2186 419.5883l38.738068 -92.29239l0.035949707 98.82434z" fill-rule="evenodd"/><path fill="#93c47d" d="m553.6243 384.36682l-35.72278 -107.38977l-0.16644287 114.98834z" fill-rule="evenodd"/><path fill="#a5c499" d="m482.09836 384.50742l35.855988 -107.36319l0.03326416 114.96176z" fill-rule="evenodd"/><path fill="#38761d" d="m341.0923 436.7218l48.638153 -88.78247l0.22665405 95.06445z" fill-rule="evenodd"/><path fill="#6aa84f" d="m438.47806 436.83804l-48.81949 -88.7605l-0.045318604 95.04248z" fill-rule="evenodd"/><path fill="#5c9345" d="m344.70856 402.96442l45.0195 -103.28006l0.20977783 110.58786z" fill-rule="evenodd"/><path fill="#88b674" d="m434.84882 403.09964l-45.187286 -103.25452l-0.04196167 110.56232z" fill-rule="evenodd"/><path fill="#6aa84f" d="m369.79462 447.69046l-38.594208 -92.31525l-0.17984009 98.8472z" fill-rule="evenodd"/><path fill="#93c47d" d="m292.51938 447.81134l38.738068 -92.29242l0.035980225 98.82437z" fill-rule="evenodd"/><path fill="#93c47d" d="m366.9251 412.58984l-35.72278 -107.38974l-0.16647339 114.98831z" fill-rule="evenodd"/><path fill="#b6d7a8" d="m295.39914 412.73044l35.855957 -107.36319l0.033294678 114.96176z" fill-rule="evenodd"/><path fill="#6aa84f" d="m474.18668 478.35126l-35.724976 -72.44714l-0.16647339 77.5733z" fill-rule="evenodd"/><path fill="#93c47d" d="m402.6563 478.4461l35.858185 -72.4292l0.033294678 77.55536z" fill-rule="evenodd"/><path fill="#93c47d" d="m471.53052 450.805l-33.067047 -84.27728l-0.15411377 90.24051z" fill-rule="evenodd"/><path fill="#b6d7a8" d="m405.322 450.91534l33.19034 -84.25647l0.030822754 90.219666z" fill-rule="evenodd"/><path fill="#6aa84f" d="m530.44885 487.55753l-35.725006 -72.44714l-0.16647339 77.57327z" fill-rule="evenodd"/><path fill="#93c47d" d="m458.9185 487.65237l35.858154 -72.42923l0.033294678 77.55536z" fill-rule="evenodd"/><path fill="#88b674" d="m527.79266 460.01126l-33.067047 -84.27731l-0.15408325 90.24051z" fill-rule="evenodd"/><path fill="#9bc692" d="m461.58417 460.12158l33.190308 -84.25644l0.030822754 90.219666z" fill-rule="evenodd"/><path fill="#6aa84f" d="m641.57623 442.66125l-33.335693 -67.78708l-0.15533447 72.583496z" fill-rule="evenodd"/><path fill="#93c47d" d="m574.8299 442.75l33.4599 -67.770325l0.031066895 72.56674z" fill-rule="evenodd"/><path fill="#b6d7a8" d="m639.09766 416.88687l-30.855469 -78.85629l-0.14379883 84.43591z" fill-rule="evenodd"/><path fill="#d9ead3" d="m577.31726 416.9901l30.97052 -78.83679l0.028747559 84.41641z" fill-rule="evenodd"/><path fill="#6aa84f" d="m429.51105 520.6291l-33.335663 -67.78708l-0.15533447 72.58353z" fill-rule="evenodd"/><path fill="#93c47d" d="m362.76474 520.71783l33.45993 -67.770294l0.031066895 72.56674z" fill-rule="evenodd"/><path fill="#b6d7a8" d="m427.03253 494.8547l-30.8555 -78.85629l-0.14376831 84.43594z" fill-rule="evenodd"/><path fill="#d9ead3" d="m365.25214 494.95795l30.97049 -78.83679l0.028778076 84.41644z" fill-rule="evenodd"/><path fill="#6aa84f" d="m268.40857 433.05054l-33.335663 -67.78708l-0.15534973 72.583496z" fill-rule="evenodd"/><path fill="#93c47d" d="m201.66223 433.13928l33.45993 -67.770294l0.031066895 72.56671z" fill-rule="evenodd"/><path fill="#b6d7a8" d="m265.93002 407.27615l-30.855484 -78.85629l-0.14376831 84.43594z" fill-rule="evenodd"/><path fill="#d9ead3" d="m204.14963 407.3794l30.97052 -78.83679l0.028747559 84.41644z" fill-rule="evenodd"/><path fill="#38761d" d="m311.59256 495.4259l-42.176514 -88.78247l-0.1965332 95.06445z" fill-rule="evenodd"/><path fill="#6aa84f" d="m227.14464 495.54214l42.333725 -88.7605l0.03930664 95.04248z" fill-rule="evenodd"/><path fill="#6aa84f" d="m308.4567 461.66855l-39.038574 -103.28009l-0.18191528 110.58789z" fill-rule="evenodd"/><path fill="#93c47d" d="m230.29172 461.80377l39.184113 -103.25455l0.036376953 110.56232z" fill-rule="evenodd"/><path fill="#6aa84f" d="m600.71045 454.67944l-33.335632 -67.78708l-0.15533447 72.583496z" fill-rule="evenodd"/><path fill="#93c47d" d="m533.9641 454.76822l33.45996 -67.770325l0.031066895 72.56674z" fill-rule="evenodd"/><path fill="#aaca9d" d="m598.23193 428.90506l-30.855469 -78.85629l-0.14379883 84.43594z" fill-rule="evenodd"/><path fill="#d9ead3" d="m536.45154 429.0083l30.97052 -78.83679l0.028747559 84.41644z" fill-rule="evenodd"/><path fill="#6aa84f" d="m367.267 581.01324l-48.63504 -124.60068l-0.22662354 133.41702z" fill-rule="evenodd"/><path fill="#93c47d" d="m269.88748 581.17633l48.816345 -124.56979l0.045318604 133.3862z" fill-rule="evenodd"/><path fill="#93c47d" d="m363.6504 535.95764l-45.0166 -112.995636l-0.20977783 120.99246z" fill-rule="evenodd"/><path fill="#b6d7a8" d="m273.5159 536.09766l45.184418 -112.95978l0.04196167 120.956604z" fill-rule="evenodd"/><path fill="#b6d7a8" d="m357.41418 505.59036l-38.880768 -96.47598l-0.18118286 103.30371z" fill-rule="evenodd"/><path fill="#d9ead3" d="m279.56516 505.7099l39.025726 -96.44537l0.036224365 103.27307z" fill-rule="evenodd"/><path fill="#38761d" d="m585.6706 536.0706l-48.638184 -88.7825l-0.22662354 95.06448z" fill-rule="evenodd"/><path fill="#6aa84f" d="m488.28482 536.1868l48.81949 -88.7605l0.045288086 95.04248z" fill-rule="evenodd"/><path fill="#5c9345" d="m582.0543 502.31323l-45.01953 -103.28009l-0.20977783 110.58786z" fill-rule="evenodd"/><path fill="#88b674" d="m491.91403 502.44846l45.187286 -103.25455l0.041992188 110.56232z" fill-rule="evenodd"/><path fill="#38761d" d="m698.99915 502.73645l-36.42456 -57.349792l-0.16973877 61.407684z" fill-rule="evenodd"/><path fill="#6aa84f" d="m626.0681 502.81152l36.560303 -57.3356l0.033935547 61.393494z" fill-rule="evenodd"/><path fill="#6aa84f" d="m696.29095 480.93057l-33.71454 -66.71466l-0.15710449 71.43518z" fill-rule="evenodd"/><path fill="#93c47d" d="m628.786 481.0179l33.84021 -66.69815l0.031433105 71.4187z" fill-rule="evenodd"/><path fill="#6aa84f" d="m749.5357 528.9004l-42.680054 -92.90906l-0.19885254 99.48303z" fill-rule="evenodd"/><path fill="#93c47d" d="m664.0796 529.02203l42.839172 -92.88608l0.039733887 99.46005z" fill-rule="evenodd"/><path fill="#b6d7a8" d="m746.3624 493.574l-39.50464 -108.08057l-0.18408203 115.72803z" fill-rule="evenodd"/><path fill="#d9ead3" d="m667.2642 493.7155l39.651917 -108.05383l0.036865234 115.70126z" fill-rule="evenodd"/><path fill="#38761d" d="m492.53055 526.1744l-26.99228 -66.92154l-0.12579346 71.65671z" fill-rule="evenodd"/><path fill="#6aa84f" d="m438.48523 526.26196l27.092926 -66.90494l0.025146484 71.64011z" fill-rule="evenodd"/><path fill="#6aa84f" d="m490.52365 500.72906l-24.98404 -77.849365l-0.11642456 83.35776z" fill-rule="evenodd"/><path fill="#93c47d" d="m440.49933 500.831l25.077179 -77.83011l0.023284912 83.3385z" fill-rule="evenodd"/><path fill="#6aa84f" d="m413.68896 602.05273l-38.594177 -92.31528l-0.1798706 98.8472z" fill-rule="evenodd"/><path fill="#93c47d" d="m336.41373 602.1736l38.738068 -92.29242l0.035980225 98.82434z" fill-rule="evenodd"/><path fill="#93c47d" d="m410.8195 566.9521l-35.72281 -107.38974l-0.16647339 114.98831z" fill-rule="evenodd"/><path fill="#b6d7a8" d="m339.29352 567.0927l35.855957 -107.36322l0.033294678 114.96179z" fill-rule="evenodd"/><path fill="#6aa84f" d="m222.93202 441.34058l38.594193 -92.31525l0.17984009 98.8472z" fill-rule="evenodd"/><path fill="#93c47d" d="m300.20728 441.46143l-38.7381 -92.29239l-0.035949707 98.82434z" fill-rule="evenodd"/><path fill="#93c47d" d="m225.80151 406.23993l35.72281 -107.38974l0.16644287 114.98834z" fill-rule="evenodd"/><path fill="#b6d7a8" d="m297.32748 406.38055l-35.855957 -107.36319l-0.033294678 114.96176z" fill-rule="evenodd"/><path fill="#6aa84f" d="m267.2658 446.52612l-40.588135 -72.44711l-0.18913269 77.57327z" fill-rule="evenodd"/><path fill="#5c9345" d="m185.99821 446.621l40.73944 -72.42923l0.037826538 77.55536z" fill-rule="evenodd"/><path fill="#93c47d" d="m264.24805 418.9799l-37.568375 -84.27731l-0.17506409 90.24051z" fill-rule="evenodd"/><path fill="#b6d7a8" d="m189.02676 419.0902l37.70842 -84.25644l0.03501892 90.219666z" fill-rule="evenodd"/><path fill="#6aa84f" d="m190.997 462.07178l-48.63817 -88.78247l-0.2266388 95.06445z" fill-rule="evenodd"/><path fill="#93c47d" d="m93.61122 462.18802l48.819473 -88.7605l0.045333862 95.04248z" fill-rule="evenodd"/><path fill="#93c47d" d="m187.3807 428.3144l-45.019485 -103.28009l-0.20977783 110.58789z" fill-rule="evenodd"/><path fill="#b6d7a8" d="m97.24045 428.44962l45.1873 -103.25455l0.04196167 110.56235z" fill-rule="evenodd"/><path fill="#38761d" d="m193.71045 511.39847l48.638153 -88.78247l0.22665405 95.06448z" fill-rule="evenodd"/><path fill="#6aa84f" d="m291.09622 511.5147l-48.81949 -88.7605l-0.045333862 95.04248z" fill-rule="evenodd"/><path fill="#5c9345" d="m197.32672 477.64108l45.019485 -103.28006l0.20977783 110.58786z" fill-rule="evenodd"/><path fill="#88b674" d="m287.46698 477.7763l-45.1873 -103.25452l-0.04196167 110.56232z" fill-rule="evenodd"/><path fill="#6aa84f" d="m222.41278 522.3671l-38.594208 -92.31525l-0.17984009 98.84723z" fill-rule="evenodd"/><path fill="#93c47d" d="m145.13753 522.488l38.738083 -92.29239l0.035964966 98.82437z" fill-rule="evenodd"/><path fill="#93c47d" d="m219.54327 487.2665l-35.722794 -107.38974l-0.16645813 114.98831z" fill-rule="evenodd"/><path fill="#b6d7a8" d="m148.0173 487.4071l35.855972 -107.36319l0.03327942 114.96176z" fill-rule="evenodd"/><path fill="#6aa84f" d="m282.1292 595.3058l-33.335648 -67.78711l-0.15534973 72.583496z" fill-rule="evenodd"/><path fill="#93c47d" d="m215.38289 595.39453l33.45993 -67.770325l0.031066895 72.56671z" fill-rule="evenodd"/><path fill="#b6d7a8" d="m279.6507 569.5314l-30.8555 -78.85629l-0.14376831 84.43594z" fill-rule="evenodd"/><path fill="#d9ead3" d="m217.87029 569.6346l30.97052 -78.83676l0.028747559 84.41641z" fill-rule="evenodd"/><path fill="#6aa84f" d="m121.02672 507.7272l-33.335655 -67.78708l-0.1553421 72.583496z" fill-rule="evenodd"/><path fill="#93c47d" d="m54.28039 507.81595l33.459934 -67.770325l0.031066895 72.56674z" fill-rule="evenodd"/><path fill="#b6d7a8" d="m118.548195 481.95282l-30.855484 -78.85629l-0.14378357 84.43591z" fill-rule="evenodd"/><path fill="#d9ead3" d="m56.76779 482.05606l30.970512 -78.83679l0.028755188 84.41641z" fill-rule="evenodd"/><path fill="#38761d" d="m164.21071 570.1026l-42.176506 -88.7825l-0.1965332 95.06448z" fill-rule="evenodd"/><path fill="#6aa84f" d="m79.7628 570.2188l42.333733 -88.7605l0.03930664 95.04248z" fill-rule="evenodd"/><path fill="#6aa84f" d="m161.07486 536.3452l-39.038574 -103.28009l-0.18190765 110.58789z" fill-rule="evenodd"/><path fill="#93c47d" d="m82.909874 536.4804l39.184105 -103.25452l0.036384583 110.56232z" fill-rule="evenodd"/><path fill="#6aa84f" d="m219.88516 655.6899l-48.63504 -124.60065l-0.2266388 133.41699z" fill-rule="evenodd"/><path fill="#93c47d" d="m122.505646 655.853l48.816345 -124.569824l0.045318604 133.38617z" fill-rule="evenodd"/><path fill="#93c47d" d="m216.26854 610.63434l-45.016586 -112.99567l-0.20977783 120.99249z" fill-rule="evenodd"/><path fill="#b6d7a8" d="m126.13407 610.77435l45.18441 -112.95984l0.04194641 120.956665z" fill-rule="evenodd"/><path fill="#b6d7a8" d="m210.03233 580.267l-38.880768 -96.47598l-0.1811676 103.30368z" fill-rule="evenodd"/><path fill="#d9ead3" d="m132.18332 580.38654l39.02571 -96.44534l0.036239624 103.2731z" fill-rule="evenodd"/><path fill="#6aa84f" d="m266.30713 676.7294l-38.594193 -92.31525l-0.17984009 98.84723z" fill-rule="evenodd"/><path fill="#93c47d" d="m189.03189 676.8502l38.738083 -92.29242l0.035964966 98.8244z" fill-rule="evenodd"/><path fill="#93c47d" d="m263.43765 641.6287l-35.72281 -107.38971l-0.16645813 114.98834z" fill-rule="evenodd"/><path fill="#b6d7a8" d="m191.91167 641.76935l35.855957 -107.36316l0.033294678 114.96173z" fill-rule="evenodd"/><path fill="#6aa84f" d="m560.0268 590.0336l38.594177 -92.31528l0.1798706 98.8472z" fill-rule="evenodd"/><path fill="#93c47d" d="m637.302 590.1545l-38.738037 -92.29242l-0.035949707 98.8244z" fill-rule="evenodd"/><path fill="#93c47d" d="m562.8963 554.933l35.72278 -107.38974l0.16644287 114.98831z" fill-rule="evenodd"/><path fill="#b6d7a8" d="m634.42224 555.0736l-35.855957 -107.36319l-0.03326416 114.96176z" fill-rule="evenodd"/><path fill="#6aa84f" d="m592.78076 595.2192l40.588135 -72.44714l0.18914795 77.5733z" fill-rule="evenodd"/><path fill="#5c9345" d="m674.04834 595.314l-40.73944 -72.4292l-0.037841797 77.55536z" fill-rule="evenodd"/><path fill="#93c47d" d="m595.7985 567.6729l37.56836 -84.27728l0.17504883 90.24048z" fill-rule="evenodd"/><path fill="#b6d7a8" d="m671.0198 567.78326l-37.708374 -84.25644l-0.03503418 90.219635z" fill-rule="evenodd"/><path fill="#6aa84f" d="m669.04956 610.76483l48.638184 -88.78247l0.22662354 95.06445z" fill-rule="evenodd"/><path fill="#93c47d" d="m766.43536 610.88104l-48.81952 -88.7605l-0.045288086 95.04248z" fill-rule="evenodd"/><path fill="#93c47d" d="m672.66583 577.00745l45.01953 -103.28009l0.20977783 110.58789z" fill-rule="evenodd"/><path fill="#b6d7a8" d="m762.8061 577.14264l-45.187256 -103.25452l-0.041992188 110.56232z" fill-rule="evenodd"/><path fill="#38761d" d="m569.09357 660.0915l48.638184 -88.78247l0.22662354 95.06445z" fill-rule="evenodd"/><path fill="#6aa84f" d="m666.4794 660.20776l-48.81952 -88.7605l-0.045288086 95.04248z" fill-rule="evenodd"/><path fill="#5c9345" d="m572.70984 626.33417l45.01947 -103.28009l0.20983887 110.58783z" fill-rule="evenodd"/><path fill="#88b674" d="m662.8501 626.46936l-45.187317 -103.25452l-0.041931152 110.56232z" fill-rule="evenodd"/><path fill="#6aa84f" d="m637.6338 671.0602l38.594177 -92.31525l0.1798706 98.84717z" fill-rule="evenodd"/><path fill="#93c47d" d="m714.90906 671.181l-38.7381 -92.29242l-0.035949707 98.8244z" fill-rule="evenodd"/><path fill="#93c47d" d="m640.5033 635.95953l35.72278 -107.38971l0.16644287 114.98828z" fill-rule="evenodd"/><path fill="#b6d7a8" d="m712.02924 636.10016l-35.855957 -107.36316l-0.03326416 114.96173z" fill-rule="evenodd"/><path fill="#6aa84f" d="m739.01984 656.4202l33.335693 -67.78705l0.15533447 72.583496z" fill-rule="evenodd"/><path fill="#93c47d" d="m805.7662 656.50903l-33.45996 -67.770325l-0.031066895 72.56671z" fill-rule="evenodd"/><path fill="#b6d7a8" d="m741.49835 630.6459l30.85553 -78.85632l0.1437378 84.435974z" fill-rule="evenodd"/><path fill="#d9ead3" d="m803.27875 630.7491l-30.97052 -78.83679l-0.028747559 84.41644z" fill-rule="evenodd"/></g></svg>